<svg width="124" height="127" viewBox="0 0 124 127" fill="none"
    xmlns="http://www.w3.org/2000/svg">
    <rect x="14.5" y="20" width="93" height="44" fill="#F9BE4A"/>
    <path d="M4 97V70.5C6.03138 66.285 7.65965 64.7198 11.5 63.5H20C22.9767 60.0606 24.7959 58.5272 28.5 57H61H94C97.3694 58.2579 99.3978 59.4837 103.5 63.5H113C116.658 65.5174 118.165 67.0632 120 70.5V97C122.552 97.6064 124.009 99.4938 123.5 105C123.379 107.835 123.075 109.289 121 111H114L113 123C107.861 128.705 97.6946 127.949 94 122V111H28.5V122C25.3642 128.06 15.2932 127.707 10.5 122V111H2.5C0.788486 108.363 0.310331 106.821 0 104C0.143896 98.3156 2.15237 96.698 4 97Z" fill="#0E343E"/>
    <path d="M10 72.5C10.0018 70.7559 10.6027 70.1718 13 70H23C25.4063 65.5455 27.1136 63.8991 31 63H92.5C95.777 63.7834 97.4945 65.516 100 70H111C112.742 70.0259 113.633 70.4856 115 72.5V97.5H10V72.5Z" fill="#F9BE4A"/>
    <circle cx="34" cy="79.5" r="9.5" fill="#0E343E"/>
    <circle cx="89" cy="79.5" r="9.5" fill="#0E343E"/>
    <circle cx="34.5" cy="80" r="4" fill="#F9BE4A"/>
    <circle cx="88.5" cy="80" r="4" fill="#F9BE4A"/>
    <path d="M47.5 71C49.8431 69.9062 51.1569 69.7703 53.5 71V90C50.9272 91.4566 49.6297 91.3775 47.5 90V71Z" fill="#0E343E"/>
    <path d="M68.5 70.872C70.8431 69.7782 72.1569 69.6424 74.5 70.872V89.872C71.9272 91.3287 70.6297 91.2496 68.5 89.872V70.872Z" fill="#0E343E"/>
    <path d="M57.5 70.872C59.8431 69.7782 61.1569 69.6424 63.5 70.872V89.872C60.9272 91.3287 59.6297 91.2496 57.5 89.872V70.872Z" fill="#0E343E"/>
    <path d="M21.5 14H100.5V44.5C99.646 47.5435 98.4488 48.6441 95 49.5H27C23.8439 48.5492 22.7582 47.3391 21.5 44.5V14Z" fill="#0E343E"/>
    <path d="M40 22H50.5L32 43.5C29.6565 43.4193 28.7396 43.2155 28 42.5C27.426 42.2335 27.4311 40.1224 27.5 36L40 22Z" fill="#F9BE4A"/>
    <path d="M56 22H63.5L46 43H38.5L56 22Z" fill="#F9BE4A"/>
    <path d="M9.5 13.5C12.034 5.25505 14.6736 2.2844 21.5 0L100.5 0C108.756 3.30745 110.975 6.41961 112 13.5V20H9.5V13.5Z" fill="#0E343E"/>
    <path opacity="0.89" d="M16.5 12C17.2536 8.54163 18.7238 7.34389 23 6.5H100C103.347 7.7802 104.561 8.98026 105.5 12V14H16.5V12Z" fill="#F9BE4A"/>
    <path d="M11.5 42.5001L14.5 44.0002V50.5002L7.5 47.0002C3.11549 46.9259 1.5036 46.2424 1.5 42.5001V30.0001C2.21844 26.3279 9.86968 25.0691 11.5 30.0001V42.5001Z" fill="#0E343E"/>
    <path d="M110.5 42.7433L107.5 44.2433V50.7433L114.5 47.2433C118.885 47.169 120.496 46.4856 120.5 42.7433V30.2433C119.782 26.5711 112.13 25.3123 110.5 30.2433V42.7433Z" fill="#0E343E"/>
    <rect x="14.5" y="20" width="93" height="44" fill="#F9BE4A"/>
    <path d="M4 97V70.5C6.03138 66.285 7.65965 64.7198 11.5 63.5H20C22.9767 60.0606 24.7959 58.5272 28.5 57H61H94C97.3694 58.2579 99.3978 59.4837 103.5 63.5H113C116.658 65.5174 118.165 67.0632 120 70.5V97C122.552 97.6064 124.009 99.4938 123.5 105C123.379 107.835 123.075 109.289 121 111H114L113 123C107.861 128.705 97.6946 127.949 94 122V111H28.5V122C25.3642 128.06 15.2932 127.707 10.5 122V111H2.5C0.788486 108.363 0.310331 106.821 0 104C0.143896 98.3156 2.15237 96.698 4 97Z" fill="#0E343E"/>
    <path d="M10 72.5C10.0018 70.7559 10.6027 70.1718 13 70H23C25.4063 65.5455 27.1136 63.8991 31 63H92.5C95.777 63.7834 97.4945 65.516 100 70H111C112.742 70.0259 113.633 70.4856 115 72.5V97.5H10V72.5Z" fill="#F9BE4A"/>
    <circle cx="34" cy="79.5" r="9.5" fill="#0E343E"/>
    <circle cx="89" cy="79.5" r="9.5" fill="#0E343E"/>
    <circle cx="34.5" cy="80" r="4" fill="#F9BE4A"/>
    <circle cx="88.5" cy="80" r="4" fill="#F9BE4A"/>
    <path d="M47.5 71C49.8431 69.9062 51.1569 69.7703 53.5 71V90C50.9272 91.4566 49.6297 91.3775 47.5 90V71Z" fill="#0E343E"/>
    <path d="M68.5 70.872C70.8431 69.7782 72.1569 69.6424 74.5 70.872V89.872C71.9272 91.3287 70.6297 91.2496 68.5 89.872V70.872Z" fill="#0E343E"/>
    <path d="M57.5 70.872C59.8431 69.7782 61.1569 69.6424 63.5 70.872V89.872C60.9272 91.3287 59.6297 91.2496 57.5 89.872V70.872Z" fill="#0E343E"/>
    <path d="M21.5 14H100.5V44.5C99.646 47.5435 98.4488 48.6441 95 49.5H27C23.8439 48.5492 22.7582 47.3391 21.5 44.5V14Z" fill="#0E343E"/>
    <path d="M40 22H50.5L32 43.5C29.6565 43.4193 28.7396 43.2155 28 42.5C27.426 42.2335 27.4311 40.1224 27.5 36L40 22Z" fill="#F9BE4A"/>
    <path d="M56 22H63.5L46 43H38.5L56 22Z" fill="#F9BE4A"/>
    <path d="M9.5 13.5C12.034 5.25505 14.6736 2.2844 21.5 0L100.5 0C108.756 3.30745 110.975 6.41961 112 13.5V20H9.5V13.5Z" fill="#0E343E"/>
    <path opacity="0.89" d="M16.5 12C17.2536 8.54163 18.7238 7.34389 23 6.5H100C103.347 7.7802 104.561 8.98026 105.5 12V14H16.5V12Z" fill="#F9BE4A"/>
    <path d="M11.5 42.5001L14.5 44.0002V50.5002L7.5 47.0002C3.11549 46.9259 1.5036 46.2424 1.5 42.5001V30.0001C2.21844 26.3279 9.86968 25.0691 11.5 30.0001V42.5001Z" fill="#0E343E"/>
    <path d="M110.5 42.7433L107.5 44.2433V50.7433L114.5 47.2433C118.885 47.169 120.496 46.4856 120.5 42.7433V30.2433C119.782 26.5711 112.13 25.3123 110.5 30.2433V42.7433Z" fill="#0E343E"/>
</svg>
