<svg width="439" height="411" viewBox="0 0 439 411" fill="none"
    xmlns="http://www.w3.org/2000/svg">
    <path d="M22.352 364.402C17.808 364.402 13.616 363.57 9.776 361.906C6 360.178 2.896 357.746 0.464 354.61L9.104 344.242C10.96 346.674 12.912 348.53 14.96 349.81C17.008 351.026 19.216 351.634 21.584 351.634C27.92 351.634 31.088 347.922 31.088 340.498V308.53H7.472V296.05H46.544V339.634C46.544 347.954 44.496 354.162 40.4 358.258C36.304 362.354 30.288 364.402 22.352 364.402ZM86.4815 364.018C80.5935 364.018 75.4095 362.866 70.9295 360.562C66.5135 358.258 63.0895 355.122 60.6575 351.154C58.2255 347.122 57.0095 342.546 57.0095 337.426C57.0095 332.242 58.1935 327.666 60.5615 323.698C62.9935 319.666 66.2895 316.53 70.4495 314.29C74.6095 311.986 79.3135 310.834 84.5615 310.834C89.6175 310.834 94.1615 311.922 98.1935 314.098C102.29 316.21 105.522 319.282 107.89 323.314C110.258 327.282 111.442 332.05 111.442 337.618C111.442 338.194 111.41 338.866 111.346 339.634C111.282 340.338 111.218 341.01 111.154 341.65H69.2015V332.914H103.281L97.5215 335.506C97.5215 332.818 96.9775 330.482 95.8895 328.498C94.8015 326.514 93.2975 324.978 91.3775 323.89C89.4575 322.738 87.2175 322.162 84.6575 322.162C82.0975 322.162 79.8255 322.738 77.8415 323.89C75.9215 324.978 74.4175 326.546 73.3295 328.594C72.2415 330.578 71.6975 332.946 71.6975 335.698V338.002C71.6975 340.818 72.3055 343.314 73.5215 345.49C74.8015 347.602 76.5615 349.234 78.8015 350.386C81.1055 351.474 83.7935 352.018 86.8655 352.018C89.6175 352.018 92.0175 351.602 94.0655 350.77C96.1775 349.938 98.0975 348.69 99.8255 347.026L107.794 355.666C105.426 358.354 102.45 360.434 98.8655 361.906C95.2815 363.314 91.1535 364.018 86.4815 364.018ZM147.044 364.018C141.156 364.018 135.972 362.866 131.492 360.562C127.076 358.258 123.652 355.122 121.22 351.154C118.788 347.122 117.572 342.546 117.572 337.426C117.572 332.242 118.756 327.666 121.124 323.698C123.556 319.666 126.852 316.53 131.012 314.29C135.172 311.986 139.876 310.834 145.124 310.834C150.18 310.834 154.724 311.922 158.756 314.098C162.852 316.21 166.084 319.282 168.452 323.314C170.82 327.282 172.004 332.05 172.004 337.618C172.004 338.194 171.972 338.866 171.908 339.634C171.844 340.338 171.78 341.01 171.716 341.65H129.764V332.914H163.844L158.084 335.506C158.084 332.818 157.54 330.482 156.452 328.498C155.364 326.514 153.86 324.978 151.94 323.89C150.02 322.738 147.78 322.162 145.22 322.162C142.66 322.162 140.388 322.738 138.404 323.89C136.484 324.978 134.98 326.546 133.892 328.594C132.804 330.578 132.26 332.946 132.26 335.698V338.002C132.26 340.818 132.868 343.314 134.084 345.49C135.364 347.602 137.124 349.234 139.364 350.386C141.668 351.474 144.356 352.018 147.428 352.018C150.18 352.018 152.58 351.602 154.628 350.77C156.74 349.938 158.66 348.69 160.388 347.026L168.356 355.666C165.988 358.354 163.012 360.434 159.428 361.906C155.844 363.314 151.716 364.018 147.044 364.018ZM212.503 364.018C208.151 364.018 204.343 363.058 201.079 361.138C197.815 359.218 195.255 356.306 193.399 352.402C191.607 348.434 190.711 343.442 190.711 337.426C190.711 331.346 191.575 326.354 193.303 322.45C195.031 318.546 197.527 315.634 200.791 313.714C204.055 311.794 207.959 310.834 212.503 310.834C217.367 310.834 221.719 311.954 225.559 314.194C229.463 316.37 232.535 319.442 234.775 323.41C237.079 327.378 238.231 332.05 238.231 337.426C238.231 342.866 237.079 347.57 234.775 351.538C232.535 355.506 229.463 358.578 225.559 360.754C221.719 362.93 217.367 364.018 212.503 364.018ZM181.975 381.874V311.602H196.279V322.162L195.991 337.522L196.951 352.786V381.874H181.975ZM209.911 351.73C212.407 351.73 214.615 351.154 216.535 350.002C218.519 348.85 220.087 347.218 221.239 345.106C222.455 342.93 223.062 340.37 223.062 337.426C223.062 334.418 222.455 331.858 221.239 329.746C220.087 327.634 218.519 326.002 216.535 324.85C214.615 323.698 212.407 323.122 209.911 323.122C207.415 323.122 205.175 323.698 203.191 324.85C201.207 326.002 199.639 327.634 198.487 329.746C197.335 331.858 196.759 334.418 196.759 337.426C196.759 340.37 197.335 342.93 198.487 345.106C199.639 347.218 201.207 348.85 203.191 350.002C205.175 351.154 207.415 351.73 209.911 351.73Z" fill="white"/>
    <path d="M228.968 363.25V296.05H241.832L270.44 343.474H263.624L291.752 296.05H304.52L304.712 363.25H290.12L290.024 318.418H292.712L270.248 356.146H263.24L240.296 318.418H243.56V363.25H228.968ZM351.28 363.25V353.17L350.32 350.962V332.914C350.32 329.714 349.328 327.218 347.344 325.426C345.424 323.634 342.448 322.738 338.416 322.738C335.664 322.738 332.944 323.186 330.256 324.082C327.632 324.914 325.392 326.066 323.536 327.538L318.16 317.074C320.976 315.09 324.368 313.554 328.336 312.466C332.304 311.378 336.336 310.834 340.432 310.834C348.304 310.834 354.416 312.69 358.768 316.402C363.12 320.114 365.296 325.906 365.296 333.778V363.25H351.28ZM335.536 364.018C331.504 364.018 328.048 363.346 325.168 362.002C322.288 360.594 320.08 358.706 318.544 356.338C317.008 353.97 316.24 351.314 316.24 348.37C316.24 345.298 316.976 342.61 318.448 340.306C319.984 338.002 322.384 336.21 325.648 334.93C328.912 333.586 333.168 332.914 338.416 332.914H352.144V341.65H340.048C336.528 341.65 334.096 342.226 332.752 343.378C331.472 344.53 330.832 345.97 330.832 347.698C330.832 349.618 331.568 351.154 333.04 352.306C334.576 353.394 336.656 353.938 339.28 353.938C341.776 353.938 344.016 353.362 346 352.21C347.984 350.994 349.424 349.234 350.32 346.93L352.624 353.842C351.536 357.17 349.552 359.698 346.672 361.426C343.792 363.154 340.08 364.018 335.536 364.018ZM409.378 364.018C405.026 364.018 401.218 363.058 397.954 361.138C394.69 359.218 392.13 356.306 390.274 352.402C388.482 348.434 387.586 343.442 387.586 337.426C387.586 331.346 388.45 326.354 390.178 322.45C391.906 318.546 394.402 315.634 397.666 313.714C400.93 311.794 404.834 310.834 409.378 310.834C414.242 310.834 418.594 311.954 422.434 314.194C426.338 316.37 429.41 319.442 431.65 323.41C433.954 327.378 435.106 332.05 435.106 337.426C435.106 342.866 433.954 347.57 431.65 351.538C429.41 355.506 426.338 358.578 422.434 360.754C418.594 362.93 414.242 364.018 409.378 364.018ZM378.85 381.874V311.602H393.154V322.162L392.866 337.522L393.826 352.786V381.874H378.85ZM406.786 351.73C409.282 351.73 411.49 351.154 413.41 350.002C415.394 348.85 416.962 347.218 418.114 345.106C419.33 342.93 419.938 340.37 419.938 337.426C419.938 334.418 419.33 331.858 418.114 329.746C416.962 327.634 415.394 326.002 413.41 324.85C411.49 323.698 409.282 323.122 406.786 323.122C404.29 323.122 402.05 323.698 400.066 324.85C398.082 326.002 396.514 327.634 395.362 329.746C394.21 331.858 393.634 334.418 393.634 337.426C393.634 340.37 394.21 342.93 395.362 345.106C396.514 347.218 398.082 348.85 400.066 350.002C402.05 351.154 404.29 351.73 406.786 351.73Z" fill="#FFE18F"/>
    <g filter="url(#filter0_d_2429_7583)">
        <path d="M141.433 188.059C141.833 187.323 142.521 186.788 143.332 186.582L220.235 167.064C220.714 166.942 221.215 166.941 221.695 167.06L300.387 186.574C301.236 186.784 301.951 187.355 302.345 188.137L334.812 252.649C335.816 254.645 334.365 256.998 332.132 256.998H109.043C106.768 256.998 105.321 254.565 106.406 252.567L141.433 188.059Z" fill="#0E343E" stroke="#0E343E" stroke-width="5"/>
        <path d="M143.916 199.194L143.916 195.098L204.255 222.862L257.167 251.536L248.349 251.536L143.916 199.194Z" fill="#F9BE4A"/>
        <path d="M179.191 193.277L182.904 196.008L115.432 253.102L121.381 241.261L179.191 193.277Z" fill="#F9BE4A"/>
        <path d="M244.636 211.028L249.277 206.932L289.193 227.413L331.895 252.902L323.076 252.902L244.636 211.028Z" fill="#F9BE4A"/>
        <path d="M308.223 197.374L311.936 201.925L271.091 219.221L264.261 215.58L308.223 197.374Z" fill="#F9BE4A"/>
        <path d="M218.643 234.696L222.821 237.882L208.896 251.081L199.613 251.081L218.643 234.696Z" fill="#F9BE4A"/>
        <path d="M221.374 3.75293C237.284 4.80693 248.664 7.17219 258.806 11.7627C268.929 16.3451 278.029 23.2409 289.257 33.6992C301.378 50.3568 307.318 63.4208 309.117 76.7236C310.926 90.0948 308.603 104.049 303.527 122.645C292.924 147.101 275.746 172.714 259.293 192.229C251.048 202.009 243.046 210.185 236.219 215.885C232.801 218.738 229.738 220.92 227.133 222.373C224.453 223.868 222.571 224.413 221.429 224.413C220.193 224.413 218.321 223.924 215.776 222.642C213.282 221.384 210.368 219.48 207.117 216.945C200.619 211.878 192.996 204.464 184.985 195.196C169.006 176.71 151.692 151.087 138.853 122.611C132.957 101.881 131.192 86.2646 133.534 72.6221C135.868 59.0312 142.336 47.065 153.546 33.7412C164.924 22.6646 174.105 15.4536 184.235 10.8564C194.342 6.27006 205.63 4.18049 221.374 3.75293Z" fill="#F9BE4A" stroke="white" stroke-width="6"/>
        <ellipse cx="220.964" cy="86.7729" rx="67.7649" ry="66.4515" fill="white"/>
        <rect x="177.335" y="66.7464" width="86.3307" height="40.053" fill="#F9BE4A"/>
        <path d="M167.588 136.839V112.716C169.473 108.879 170.985 107.455 174.55 106.344H182.44C185.204 103.213 186.892 101.818 190.331 100.427H220.5H251.133C254.261 101.572 256.144 102.688 259.952 106.344H268.771C272.166 108.181 273.566 109.588 275.269 112.716V136.839C277.638 137.391 278.99 139.109 278.518 144.121C278.406 146.702 278.124 148.026 276.197 149.583H269.699L268.771 160.507C264 165.7 254.563 165.011 251.133 159.596V149.583H190.331V159.596C187.42 165.112 178.071 164.792 173.622 159.596V149.583H166.195C164.606 147.183 164.163 145.779 163.875 143.211C164.008 138.037 165.873 136.564 167.588 136.839Z" fill="#0E343E"/>
        <path d="M173.157 114.537C173.159 112.949 173.717 112.418 175.942 112.261H185.225C187.459 108.206 189.044 106.708 192.651 105.889H249.741C252.783 106.602 254.377 108.179 256.703 112.261H266.914C268.531 112.285 269.359 112.703 270.628 114.537V137.294H173.157V114.537Z" fill="#F9BE4A"/>
        <ellipse cx="195.436" cy="120.909" rx="8.81873" ry="8.6478" fill="#0E343E"/>
        <ellipse cx="246.492" cy="120.909" rx="8.81873" ry="8.6478" fill="#0E343E"/>
        <ellipse cx="195.9" cy="121.364" rx="3.71315" ry="3.64118" fill="#F9BE4A"/>
        <ellipse cx="246.028" cy="121.364" rx="3.71315" ry="3.64118" fill="#F9BE4A"/>
        <path d="M207.968 113.171C210.143 112.176 211.363 112.052 213.538 113.171V130.467C211.15 131.793 209.945 131.721 207.968 130.467V113.171Z" fill="#0E343E"/>
        <path d="M227.462 113.055C229.637 112.059 230.857 111.936 233.032 113.055V130.351C230.644 131.677 229.439 131.604 227.462 130.351V113.055Z" fill="#0E343E"/>
        <path d="M217.251 113.055C219.426 112.059 220.646 111.936 222.821 113.055V130.351C220.432 131.677 219.228 131.604 217.251 130.351V113.055Z" fill="#0E343E"/>
        <path d="M183.833 61.2846H257.167V89.0486C256.375 91.819 255.263 92.821 252.062 93.6001H188.938C186.009 92.7346 185.001 91.633 183.833 89.0486V61.2846Z" fill="#0E343E"/>
        <path d="M201.006 68.567H210.753L193.58 88.1383C191.404 88.0648 190.553 87.8793 189.867 87.228C189.334 86.9854 189.339 85.0637 189.403 81.3111L201.006 68.567Z" fill="#F9BE4A"/>
        <path d="M215.859 68.567H222.821L206.576 87.6832H199.614L215.859 68.567Z" fill="#F9BE4A"/>
        <path d="M172.693 60.8295C175.045 53.3241 177.496 50.6199 183.833 48.5405H257.167C264.831 51.5512 266.891 54.3842 267.843 60.8295V66.7464H172.693V60.8295Z" fill="#0E343E"/>
        <path opacity="0.89" d="M179.191 59.464C179.891 56.3159 181.256 55.2256 185.225 54.4574H256.703C259.81 55.6228 260.937 56.7152 261.809 59.464V61.2846H179.191V59.464Z" fill="#F9BE4A"/>
        <path d="M174.55 87.228L177.335 88.5935V94.5104L170.837 91.3244C166.767 91.2567 165.27 90.6346 165.267 87.228V75.8493C165.934 72.5065 173.036 71.3607 174.55 75.8493V87.228Z" fill="#0E343E"/>
        <path d="M266.45 87.4495L263.665 88.815V94.7319L270.163 91.5459C274.233 91.4782 275.73 90.8561 275.733 87.4495V76.0708C275.066 72.728 267.964 71.5822 266.45 76.0708V87.4495Z" fill="#0E343E"/>
    </g>
    <defs>
        <filter id="filter0_d_2429_7583" x="99.535" y="0.75" width="242.104" height="294" filterUnits="userSpaceOnUse" color-interpolation-filters="sRGB">
            <feFlood flood-opacity="0" result="BackgroundImageFix"/>
            <feColorMatrix in="SourceAlpha" type="matrix" values="0 0 0 0 0 0 0 0 0 0 0 0 0 0 0 0 0 0 127 0" result="hardAlpha"/>
            <feOffset dy="4"/>
            <feGaussianBlur stdDeviation="2"/>
            <feComposite in2="hardAlpha" operator="out"/>
            <feColorMatrix type="matrix" values="0 0 0 0 0 0 0 0 0 0 0 0 0 0 0 0 0 0 0.25 0"/>
            <feBlend mode="normal" in2="BackgroundImageFix" result="effect1_dropShadow_2429_7583"/>
            <feBlend mode="normal" in="SourceGraphic" in2="effect1_dropShadow_2429_7583" result="shape"/>
        </filter>
    </defs>
</svg>
