<svg width="17" height="16" viewBox="0 0 17 16" fill="none"
    xmlns="http://www.w3.org/2000/svg">
    <path d="M3.48401 8.625V8.628C3.46717 8.69151 3.43797 8.75109 3.39809 8.80331C3.35821 8.85553 3.30843 8.89938 3.25159 8.93235C3.19475 8.96532 3.13197 8.98677 3.06684 8.99546C3.00171 9.00415 2.9355 8.99991 2.87201 8.983C2.44101 8.869 2.51701 8.372 2.51701 8.372L2.53501 8.31C2.53501 8.31 2.56101 8.226 2.58201 8.165C2.83863 7.44549 3.21641 6.77516 3.69901 6.183C4.59601 5.089 6.10501 4 8.50001 4C10.895 4 12.404 5.089 13.302 6.183C13.7846 6.77516 14.1624 7.44549 14.419 8.165C14.4405 8.22683 14.4605 8.28919 14.479 8.352L14.482 8.365V8.369L14.483 8.371C14.5147 8.49827 14.4952 8.6329 14.4285 8.74588C14.3619 8.85886 14.2536 8.94114 14.1269 8.97498C14.0001 9.00883 13.8652 8.99153 13.7511 8.92681C13.637 8.86209 13.553 8.75513 13.517 8.629L13.516 8.625L13.508 8.6L13.473 8.491C13.255 7.88352 12.9355 7.31748 12.528 6.817C11.786 5.912 10.545 5 8.50001 5C6.45501 5 5.21501 5.912 4.47201 6.817C4.06451 7.31748 3.74496 7.88352 3.52701 8.491L3.49201 8.6L3.48401 8.625ZM6.00001 9.5C6.00001 8.83696 6.2634 8.20107 6.73224 7.73223C7.20108 7.26339 7.83697 7 8.50001 7C9.16305 7 9.79893 7.26339 10.2678 7.73223C10.7366 8.20107 11 8.83696 11 9.5C11 10.163 10.7366 10.7989 10.2678 11.2678C9.79893 11.7366 9.16305 12 8.50001 12C7.83697 12 7.20108 11.7366 6.73224 11.2678C6.2634 10.7989 6.00001 10.163 6.00001 9.5Z" fill="black"/>
</svg>
