<svg width="250" height="56" viewBox="0 0 250 56" fill="none"
    xmlns="http://www.w3.org/2000/svg">
    <g clip-path="url(#clip0_2001_5865)">
        <g filter="url(#filter0_d_2001_5865)">
            <path d="M27.3502 37.2005C27.7678 36.4972 28.4546 35.9948 29.2514 35.8099L43.9272 32.4038C44.3684 32.3014 44.8271 32.3002 45.2688 32.4004L60.2669 35.8013C61.1031 35.9909 61.8183 36.5293 62.2317 37.2805L66.5529 45.1323C67.6533 47.1317 66.2068 49.5788 63.9246 49.5788H25.2704C22.9447 49.5788 21.5034 47.0469 22.6909 45.0471L27.3502 37.2005Z" fill="#0E343E" stroke="#0E343E" stroke-width="5"/>
            <path d="M28.3945 38.4627L28.3945 37.6749L41.0837 43.0141L52.2112 48.5284L50.3567 48.5284L28.3945 38.4627Z" fill="#F9BE4A"/>
            <path d="M35.8128 37.3248L36.5937 37.85L22.4042 48.8295L23.6552 46.5525L35.8128 37.3248Z" fill="#F9BE4A"/>
            <path d="M49.5756 40.7384L50.5517 39.9506L58.9461 43.8894L67.9262 48.791L66.0716 48.791L49.5756 40.7384Z" fill="#F9BE4A"/>
            <path d="M62.9482 38.1125L63.7291 38.9878L55.1394 42.3139L53.703 41.6137L62.9482 38.1125Z" fill="#F9BE4A"/>
            <path d="M44.1094 45.2898L44.9879 45.9025L42.0596 48.4409L40.1074 48.4409L44.1094 45.2898Z" fill="#F9BE4A"/>
            <path d="M44.688 0.800293C48.0494 1.00348 50.4666 1.46081 52.6245 2.354C54.7768 3.24492 56.7046 4.58422 59.0718 6.60107C61.631 9.81559 62.8872 12.3383 63.2671 14.9067C63.6483 17.4849 63.1568 20.1736 62.0884 23.7524C59.8558 28.463 56.2388 33.3965 52.7729 37.1558C51.0369 39.0388 49.3496 40.6158 47.9067 41.7173C47.1848 42.2684 46.5334 42.6942 45.9751 42.979C45.4059 43.2694 44.9795 43.3892 44.6948 43.3892C44.3958 43.3891 43.9749 43.2829 43.4321 43.0327C42.8963 42.7857 42.275 42.4146 41.5874 41.9243C40.2127 40.944 38.6047 39.5129 36.9175 37.728C33.5499 34.1653 29.9036 29.2286 27.2007 23.7446C25.9597 19.755 25.5868 16.7468 26.0806 14.1167C26.5732 11.4928 27.9399 9.17993 30.3081 6.60693C32.7048 4.47305 34.6499 3.0742 36.8042 2.18018C38.9578 1.28645 41.3587 0.882354 44.688 0.800293Z" fill="#F9BE4A" stroke="white"/>
            <ellipse cx="44.5977" cy="16.8431" rx="14.251" ry="12.7791" fill="#FFE18F"/>
            <rect x="35.4224" y="12.9919" width="18.1554" height="7.7025" fill="#F9BE4A"/>
            <path d="M33.3724 26.4713V21.8323C33.769 21.0944 34.0869 20.8204 34.8366 20.6069H36.4959C37.0771 20.0048 37.4322 19.7363 38.1553 19.469H44.4999H50.9422C51.5999 19.6892 51.9959 19.9038 52.7967 20.6069H54.6513C55.3654 20.96 55.6597 21.2306 56.0178 21.8323V26.4713C56.5161 26.5774 56.8004 26.9078 56.7011 27.8717C56.6775 28.368 56.6182 28.6226 56.2131 28.9221H54.8465L54.6513 31.0227C53.648 32.0214 51.6634 31.889 50.9422 30.8477V28.9221H38.1553V30.8477C37.5431 31.9084 35.5771 31.8468 34.6414 30.8477V28.9221H33.0796C32.7455 28.4604 32.6521 28.1905 32.5916 27.6967C32.6196 26.7016 33.0117 26.4184 33.3724 26.4713Z" fill="#0E343E"/>
            <path d="M34.5439 22.1823C34.5443 21.877 34.6616 21.7748 35.1296 21.7447H37.0818C37.5515 20.9649 37.8848 20.6767 38.6435 20.5193H50.6495C51.2893 20.6564 51.6246 20.9597 52.1137 21.7447H54.2611C54.6011 21.7492 54.7751 21.8297 55.042 22.1823V26.5587H34.5439V22.1823Z" fill="#F9BE4A"/>
            <ellipse cx="39.2291" cy="23.4078" rx="1.85458" ry="1.66304" fill="#0E343E"/>
            <ellipse cx="49.9662" cy="23.4078" rx="1.85458" ry="1.66304" fill="#0E343E"/>
            <ellipse cx="39.3268" cy="23.4953" rx="0.780876" ry="0.700228" fill="#F9BE4A"/>
            <ellipse cx="49.8685" cy="23.4953" rx="0.780877" ry="0.700228" fill="#F9BE4A"/>
            <path d="M41.8645 21.9197C42.3219 21.7283 42.5784 21.7045 43.0358 21.9197V25.2458C42.5336 25.5008 42.2803 25.487 41.8645 25.2458V21.9197Z" fill="#0E343E"/>
            <path d="M45.9641 21.8974C46.4215 21.7059 46.678 21.6821 47.1354 21.8974V25.2235C46.6332 25.4785 46.3799 25.4646 45.9641 25.2235V21.8974Z" fill="#0E343E"/>
            <path d="M43.8167 21.8974C44.2741 21.7059 44.5305 21.6821 44.988 21.8974V25.2235C44.4857 25.4785 44.2324 25.4646 43.8167 25.2235V21.8974Z" fill="#0E343E"/>
            <path d="M36.7888 11.9415H52.2111V17.2808C52.0444 17.8135 51.8107 18.0062 51.1374 18.156H37.8625C37.2464 17.9896 37.0344 17.7778 36.7888 17.2808V11.9415Z" fill="#0E343E"/>
            <path d="M40.4005 13.342H42.4503L38.8388 17.1058C38.3813 17.0916 38.2023 17.056 38.0579 16.9307C37.9458 16.884 37.9468 16.5145 37.9603 15.7928L40.4005 13.342Z" fill="#F9BE4A"/>
            <path d="M43.524 13.342H44.9881L41.5718 17.0182H40.1077L43.524 13.342Z" fill="#F9BE4A"/>
            <path d="M34.4463 11.854C34.941 10.4107 35.4563 9.89062 36.7889 9.49072H52.2112C53.823 10.0697 54.2561 10.6145 54.4562 11.854V12.9919H34.4463V11.854Z" fill="#0E343E"/>
            <path opacity="0.89" d="M35.8127 11.5915C35.9599 10.9861 36.2469 10.7764 37.0817 10.6287H52.1135C52.7669 10.8528 53.004 11.0628 53.1872 11.5915V11.9416H35.8127V11.5915Z" fill="#F9BE4A"/>
            <path d="M34.8367 16.9307L35.4224 17.1932V18.3311L34.0558 17.7184C33.1999 17.7054 32.8852 17.5858 32.8845 16.9307V14.7424C33.0248 14.0996 34.5184 13.8792 34.8367 14.7424V16.9307Z" fill="#0E343E"/>
            <path d="M54.1633 16.9733L53.5776 17.2358V18.3737L54.9442 17.761C55.8001 17.748 56.1148 17.6284 56.1155 16.9733V14.785C55.9752 14.1422 54.4816 13.9218 54.1633 14.785V16.9733Z" fill="#0E343E"/>
        </g>
        <path d="M94.088 36.5883C92.952 36.5883 91.904 36.3803 90.944 35.9643C90 35.5323 89.224 34.9243 88.616 34.1403L90.776 31.5483C91.24 32.1563 91.728 32.6203 92.24 32.9403C92.752 33.2443 93.304 33.3963 93.896 33.3963C95.48 33.3963 96.272 32.4683 96.272 30.6123V22.6203H90.368V19.5003H100.136V30.3963C100.136 32.4763 99.624 34.0283 98.6 35.0523C97.576 36.0763 96.072 36.5883 94.088 36.5883ZM110.12 36.4923C108.648 36.4923 107.352 36.2043 106.232 35.6283C105.128 35.0523 104.272 34.2683 103.664 33.2763C103.056 32.2683 102.752 31.1243 102.752 29.8443C102.752 28.5483 103.048 27.4043 103.64 26.4123C104.248 25.4043 105.072 24.6203 106.112 24.0603C107.152 23.4843 108.328 23.1963 109.64 23.1963C110.904 23.1963 112.04 23.4683 113.048 24.0123C114.072 24.5403 114.88 25.3083 115.472 26.3163C116.064 27.3083 116.36 28.5003 116.36 29.8923C116.36 30.0363 116.352 30.2043 116.336 30.3963C116.32 30.5723 116.304 30.7403 116.288 30.9003H105.8V28.7163H114.32L112.88 29.3643C112.88 28.6923 112.744 28.1083 112.472 27.6123C112.2 27.1163 111.824 26.7323 111.344 26.4603C110.864 26.1723 110.304 26.0283 109.664 26.0283C109.024 26.0283 108.456 26.1723 107.96 26.4603C107.48 26.7323 107.104 27.1243 106.832 27.6363C106.56 28.1323 106.424 28.7243 106.424 29.4123V29.9883C106.424 30.6923 106.576 31.3163 106.88 31.8603C107.2 32.3883 107.64 32.7963 108.2 33.0843C108.776 33.3563 109.448 33.4923 110.216 33.4923C110.904 33.4923 111.504 33.3883 112.016 33.1803C112.544 32.9723 113.024 32.6603 113.456 32.2443L115.448 34.4043C114.856 35.0763 114.112 35.5963 113.216 35.9643C112.32 36.3163 111.288 36.4923 110.12 36.4923ZM125.261 36.4923C123.789 36.4923 122.493 36.2043 121.373 35.6283C120.269 35.0523 119.413 34.2683 118.805 33.2763C118.197 32.2683 117.893 31.1243 117.893 29.8443C117.893 28.5483 118.189 27.4043 118.781 26.4123C119.389 25.4043 120.213 24.6203 121.253 24.0603C122.293 23.4843 123.469 23.1963 124.781 23.1963C126.045 23.1963 127.181 23.4683 128.189 24.0123C129.213 24.5403 130.021 25.3083 130.613 26.3163C131.205 27.3083 131.501 28.5003 131.501 29.8923C131.501 30.0363 131.493 30.2043 131.477 30.3963C131.461 30.5723 131.445 30.7403 131.429 30.9003H120.941V28.7163H129.461L128.021 29.3643C128.021 28.6923 127.885 28.1083 127.613 27.6123C127.341 27.1163 126.965 26.7323 126.485 26.4603C126.005 26.1723 125.445 26.0283 124.805 26.0283C124.165 26.0283 123.597 26.1723 123.101 26.4603C122.621 26.7323 122.245 27.1243 121.973 27.6363C121.701 28.1323 121.565 28.7243 121.565 29.4123V29.9883C121.565 30.6923 121.717 31.3163 122.021 31.8603C122.341 32.3883 122.781 32.7963 123.341 33.0843C123.917 33.3563 124.589 33.4923 125.357 33.4923C126.045 33.4923 126.645 33.3883 127.157 33.1803C127.685 32.9723 128.165 32.6603 128.597 32.2443L130.589 34.4043C129.997 35.0763 129.253 35.5963 128.357 35.9643C127.461 36.3163 126.429 36.4923 125.261 36.4923ZM141.626 36.4923C140.538 36.4923 139.586 36.2523 138.77 35.7723C137.954 35.2923 137.314 34.5643 136.85 33.5883C136.402 32.5963 136.178 31.3483 136.178 29.8443C136.178 28.3243 136.394 27.0763 136.826 26.1003C137.258 25.1243 137.882 24.3963 138.698 23.9163C139.514 23.4363 140.49 23.1963 141.626 23.1963C142.842 23.1963 143.93 23.4763 144.89 24.0363C145.866 24.5803 146.634 25.3483 147.194 26.3403C147.77 27.3323 148.058 28.5003 148.058 29.8443C148.058 31.2043 147.77 32.3803 147.194 33.3723C146.634 34.3643 145.866 35.1323 144.89 35.6763C143.93 36.2203 142.842 36.4923 141.626 36.4923ZM133.994 40.9563V23.3883H137.57V26.0283L137.498 29.8683L137.738 33.6843V40.9563H133.994ZM140.978 33.4203C141.602 33.4203 142.154 33.2763 142.634 32.9883C143.13 32.7003 143.522 32.2923 143.81 31.7643C144.114 31.2203 144.266 30.5803 144.266 29.8443C144.266 29.0923 144.114 28.4523 143.81 27.9243C143.522 27.3963 143.13 26.9883 142.634 26.7003C142.154 26.4123 141.602 26.2683 140.978 26.2683C140.354 26.2683 139.794 26.4123 139.298 26.7003C138.802 26.9883 138.41 27.3963 138.122 27.9243C137.834 28.4523 137.69 29.0923 137.69 29.8443C137.69 30.5803 137.834 31.2203 138.122 31.7643C138.41 32.2923 138.802 32.7003 139.298 32.9883C139.794 33.2763 140.354 33.4203 140.978 33.4203Z" fill="white"/>
        <path d="M145.992 36.3003V19.5003H149.208L156.36 31.3563H154.656L161.688 19.5003H164.88L164.928 36.3003H161.28L161.256 25.0923H161.928L156.312 34.5243H154.56L148.824 25.0923H149.64V36.3003H145.992ZM176.57 36.3003V33.7803L176.33 33.2283V28.7163C176.33 27.9163 176.082 27.2923 175.586 26.8443C175.106 26.3963 174.362 26.1723 173.354 26.1723C172.666 26.1723 171.986 26.2843 171.314 26.5083C170.658 26.7163 170.098 27.0043 169.634 27.3723L168.29 24.7563C168.994 24.2603 169.842 23.8763 170.834 23.6043C171.826 23.3323 172.834 23.1963 173.858 23.1963C175.826 23.1963 177.354 23.6603 178.442 24.5883C179.53 25.5163 180.074 26.9643 180.074 28.9323V36.3003H176.57ZM172.634 36.4923C171.626 36.4923 170.762 36.3243 170.042 35.9883C169.322 35.6363 168.77 35.1643 168.386 34.5723C168.002 33.9803 167.81 33.3163 167.81 32.5803C167.81 31.8123 167.994 31.1403 168.362 30.5643C168.746 29.9883 169.346 29.5403 170.162 29.2203C170.978 28.8843 172.042 28.7163 173.354 28.7163H176.786V30.9003H173.762C172.882 30.9003 172.274 31.0443 171.938 31.3323C171.618 31.6203 171.458 31.9803 171.458 32.4123C171.458 32.8923 171.642 33.2763 172.01 33.5643C172.394 33.8363 172.914 33.9723 173.57 33.9723C174.194 33.9723 174.754 33.8283 175.25 33.5403C175.746 33.2363 176.106 32.7963 176.33 32.2203L176.906 33.9483C176.634 34.7803 176.138 35.4123 175.418 35.8443C174.698 36.2763 173.77 36.4923 172.634 36.4923ZM191.094 36.4923C190.006 36.4923 189.054 36.2523 188.238 35.7723C187.422 35.2923 186.782 34.5643 186.318 33.5883C185.87 32.5963 185.646 31.3483 185.646 29.8443C185.646 28.3243 185.862 27.0763 186.294 26.1003C186.726 25.1243 187.35 24.3963 188.166 23.9163C188.982 23.4363 189.958 23.1963 191.094 23.1963C192.31 23.1963 193.398 23.4763 194.358 24.0363C195.334 24.5803 196.102 25.3483 196.662 26.3403C197.238 27.3323 197.526 28.5003 197.526 29.8443C197.526 31.2043 197.238 32.3803 196.662 33.3723C196.102 34.3643 195.334 35.1323 194.358 35.6763C193.398 36.2203 192.31 36.4923 191.094 36.4923ZM183.462 40.9563V23.3883H187.038V26.0283L186.966 29.8683L187.206 33.6843V40.9563H183.462ZM190.446 33.4203C191.07 33.4203 191.622 33.2763 192.102 32.9883C192.598 32.7003 192.99 32.2923 193.278 31.7643C193.582 31.2203 193.734 30.5803 193.734 29.8443C193.734 29.0923 193.582 28.4523 193.278 27.9243C192.99 27.3963 192.598 26.9883 192.102 26.7003C191.622 26.4123 191.07 26.2683 190.446 26.2683C189.822 26.2683 189.262 26.4123 188.766 26.7003C188.27 26.9883 187.878 27.3963 187.59 27.9243C187.302 28.4523 187.158 29.0923 187.158 29.8443C187.158 30.5803 187.302 31.2203 187.59 31.7643C187.878 32.2923 188.27 32.7003 188.766 32.9883C189.262 33.2763 189.822 33.4203 190.446 33.4203Z" fill="#FFE18F"/>
    </g>
    <defs>
        <filter id="filter0_d_2001_5865" x="19.262" y="-0.199707" width="54.6704" height="60" filterUnits="userSpaceOnUse" color-interpolation-filters="sRGB">
            <feFlood flood-opacity="0" result="BackgroundImageFix"/>
            <feColorMatrix in="SourceAlpha" type="matrix" values="0 0 0 0 0 0 0 0 0 0 0 0 0 0 0 0 0 0 127 0" result="hardAlpha"/>
            <feOffset dx="2" dy="2"/>
            <feGaussianBlur stdDeviation="1.25"/>
            <feComposite in2="hardAlpha" operator="out"/>
            <feColorMatrix type="matrix" values="0 0 0 0 0 0 0 0 0 0 0 0 0 0 0 0 0 0 0.19 0"/>
            <feBlend mode="normal" in2="BackgroundImageFix" result="effect1_dropShadow_2001_5865"/>
            <feBlend mode="normal" in="SourceGraphic" in2="effect1_dropShadow_2001_5865" result="shape"/>
        </filter>
        <clipPath id="clip0_2001_5865">
            <rect width="250" height="55" fill="white" transform="translate(0 0.300293)"/>
        </clipPath>
    </defs>
</svg>
