<svg width="17" height="16" viewBox="0 0 17 16" fill="none"
    xmlns="http://www.w3.org/2000/svg">
    <path d="M10.62 10.827L14.646 14.854C14.6925 14.9005 14.7477 14.9374 14.8084 14.9625C14.8692 14.9877 14.9343 15.0007 15 15.0007C15.0658 15.0007 15.1309 14.9877 15.1916 14.9625C15.2523 14.9374 15.3075 14.9005 15.354 14.854C15.4005 14.8075 15.4374 14.7523 15.4625 14.6916C15.4877 14.6309 15.5007 14.5658 15.5007 14.5C15.5007 14.4343 15.4877 14.3692 15.4625 14.3084C15.4374 14.2477 15.4005 14.1925 15.354 14.146L2.35402 1.14602C2.30753 1.09953 2.25234 1.06266 2.1916 1.0375C2.13087 1.01234 2.06577 0.99939 2.00002 0.99939C1.93428 0.99939 1.86918 1.01234 1.80844 1.0375C1.7477 1.06266 1.69251 1.09953 1.64602 1.14602C1.59953 1.19251 1.56266 1.2477 1.5375 1.30844C1.51234 1.36918 1.49939 1.43428 1.49939 1.50002C1.49939 1.56577 1.51234 1.63087 1.5375 1.6916C1.56266 1.75234 1.59953 1.80753 1.64602 1.85402L4.87602 5.08402C4.4365 5.39557 4.04095 5.76489 3.70002 6.18202C3.21742 6.77418 2.83964 7.44451 2.58302 8.16402C2.56202 8.22502 2.53602 8.30902 2.53602 8.30902L2.51802 8.37102C2.51802 8.37102 2.44202 8.86802 2.87302 8.98202C3.00112 9.01588 3.13741 8.99751 3.25198 8.93095C3.36654 8.86438 3.45 8.75507 3.48402 8.62702L3.48502 8.62402L3.49302 8.59902L3.52802 8.49002C3.74598 7.88255 4.06552 7.3165 4.47302 6.81602C4.79405 6.42293 5.17306 6.08102 5.59702 5.80202L7.17502 7.38002C6.85658 7.57961 6.58724 7.84842 6.38703 8.16646C6.18681 8.4845 6.06088 8.84359 6.01859 9.21702C5.9763 9.59045 6.01875 9.9686 6.14277 10.3234C6.26679 10.6781 6.4692 11.0004 6.73494 11.2661C7.00068 11.5318 7.32292 11.7342 7.67768 11.8583C8.03244 11.9823 8.4106 12.0247 8.78402 11.9825C9.15745 11.9402 9.51654 11.8142 9.83458 11.614C10.1526 11.4138 10.4214 11.1445 10.621 10.826M6.82102 4.19802L7.67502 5.05202C7.93435 5.01735 8.20935 5.00002 8.50002 5.00002C10.544 5.00002 11.786 5.91202 12.528 6.81702C12.9355 7.3175 13.2551 7.88355 13.473 8.49102C13.4897 8.53969 13.5014 8.57602 13.508 8.60002L13.516 8.62502V8.62802L13.517 8.62902C13.554 8.75382 13.6382 8.85927 13.7518 8.92296C13.8653 8.98665 13.9992 9.00356 14.1249 8.97009C14.2507 8.93662 14.3585 8.85542 14.4254 8.74374C14.4923 8.63206 14.5129 8.49871 14.483 8.37202V8.36902L14.482 8.36502L14.478 8.35202C14.4611 8.28874 14.4411 8.22633 14.418 8.16502C14.1614 7.44551 13.7836 6.77518 13.301 6.18302C12.405 5.08902 10.896 4.00002 8.50202 4.00002C7.88402 4.00002 7.32502 4.07102 6.82102 4.19802Z" fill="black"/>
</svg>
