<svg width="19" height="20" viewBox="0 0 19 20" fill="none"
    xmlns="http://www.w3.org/2000/svg">
    <g clip-path="url(#clip0_2455_261)">
        <path d="M0 1.98779C0 1.67285 0.125111 1.3708 0.347811 1.1481C0.57051 0.925404 0.872555 0.800293 1.1875 0.800293L7.125 0.800293C7.43994 0.800293 7.74199 0.925404 7.96469 1.1481C8.18739 1.3708 8.3125 1.67285 8.3125 1.98779V18.6128C8.3125 18.9277 8.18739 19.2298 7.96469 19.4525C7.74199 19.6752 7.43994 19.8003 7.125 19.8003H1.1875C0.872555 19.8003 0.57051 19.6752 0.347811 19.4525C0.125111 19.2298 0 18.9277 0 18.6128V1.98779ZM10.6875 1.98779C10.6875 1.67285 10.8126 1.3708 11.0353 1.1481C11.258 0.925404 11.5601 0.800293 11.875 0.800293L17.8125 0.800293C18.1274 0.800293 18.4295 0.925404 18.6522 1.1481C18.8749 1.3708 19 1.67285 19 1.98779V7.92529C19 8.24024 18.8749 8.54228 18.6522 8.76498C18.4295 8.98768 18.1274 9.11279 17.8125 9.11279H11.875C11.5601 9.11279 11.258 8.98768 11.0353 8.76498C10.8126 8.54228 10.6875 8.24024 10.6875 7.92529V1.98779ZM10.6875 12.6753C10.6875 12.3603 10.8126 12.0583 11.0353 11.8356C11.258 11.6129 11.5601 11.4878 11.875 11.4878H17.8125C18.1274 11.4878 18.4295 11.6129 18.6522 11.8356C18.8749 12.0583 19 12.3603 19 12.6753V18.6128C19 18.9277 18.8749 19.2298 18.6522 19.4525C18.4295 19.6752 18.1274 19.8003 17.8125 19.8003H11.875C11.5601 19.8003 11.258 19.6752 11.0353 19.4525C10.8126 19.2298 10.6875 18.9277 10.6875 18.6128V12.6753Z" fill="white"/>
    </g>
    <defs>
        <clipPath id="clip0_2455_261">
            <rect width="19" height="19" fill="white" transform="translate(0 0.800293)"/>
        </clipPath>
    </defs>
</svg>
